<mxfile host="app.diagrams.net" modified="2023-11-30T19:23:33.602Z" agent="Mozilla/5.0 (Windows NT 10.0; Win64; x64) AppleWebKit/537.36 (KHTML, like Gecko) Chrome/119.0.0.0 Safari/537.36" etag="IGWqufSDR2gz0-M9a9ct" version="22.1.5" type="device" pages="2">
  <diagram name="Entry_point" id="c0hLZXdn9E_coPLfsac1">
    <mxGraphModel dx="904" dy="546" grid="1" gridSize="10" guides="1" tooltips="1" connect="1" arrows="1" fold="1" page="1" pageScale="1" pageWidth="1654" pageHeight="1169" math="0" shadow="0">
      <root>
        <mxCell id="0" />
        <mxCell id="1" parent="0" />
        <mxCell id="lFE6wIospnwltuepOsA1-13" value="" style="edgeStyle=orthogonalEdgeStyle;rounded=0;orthogonalLoop=1;jettySize=auto;html=1;" edge="1" parent="1" source="lFE6wIospnwltuepOsA1-1" target="lFE6wIospnwltuepOsA1-3">
          <mxGeometry relative="1" as="geometry" />
        </mxCell>
        <mxCell id="lFE6wIospnwltuepOsA1-1" value="Start" style="strokeWidth=2;html=1;shape=mxgraph.flowchart.terminator;whiteSpace=wrap;" vertex="1" parent="1">
          <mxGeometry x="520" y="160" width="120" height="40" as="geometry" />
        </mxCell>
        <mxCell id="lFE6wIospnwltuepOsA1-10" value="No account" style="edgeStyle=orthogonalEdgeStyle;rounded=0;orthogonalLoop=1;jettySize=auto;html=1;" edge="1" parent="1" source="lFE6wIospnwltuepOsA1-2" target="lFE6wIospnwltuepOsA1-9">
          <mxGeometry relative="1" as="geometry">
            <Array as="points">
              <mxPoint x="310" y="460" />
              <mxPoint x="310" y="460" />
            </Array>
          </mxGeometry>
        </mxCell>
        <mxCell id="myGewdImtbe0IOwLtQ24-9" style="edgeStyle=orthogonalEdgeStyle;rounded=0;orthogonalLoop=1;jettySize=auto;html=1;" edge="1" parent="1" source="lFE6wIospnwltuepOsA1-2" target="myGewdImtbe0IOwLtQ24-8">
          <mxGeometry relative="1" as="geometry" />
        </mxCell>
        <mxCell id="lFE6wIospnwltuepOsA1-2" value="Login" style="rounded=1;whiteSpace=wrap;html=1;absoluteArcSize=1;arcSize=14;strokeWidth=2;" vertex="1" parent="1">
          <mxGeometry x="280" y="360" width="200" height="40" as="geometry" />
        </mxCell>
        <mxCell id="lFE6wIospnwltuepOsA1-6" value="No" style="edgeStyle=orthogonalEdgeStyle;rounded=0;orthogonalLoop=1;jettySize=auto;html=1;" edge="1" parent="1" source="lFE6wIospnwltuepOsA1-3" target="lFE6wIospnwltuepOsA1-2">
          <mxGeometry relative="1" as="geometry">
            <Array as="points">
              <mxPoint x="385" y="290" />
            </Array>
          </mxGeometry>
        </mxCell>
        <mxCell id="lFE6wIospnwltuepOsA1-7" value="Yes" style="edgeStyle=orthogonalEdgeStyle;rounded=0;orthogonalLoop=1;jettySize=auto;html=1;" edge="1" parent="1" source="lFE6wIospnwltuepOsA1-3" target="lFE6wIospnwltuepOsA1-5">
          <mxGeometry relative="1" as="geometry">
            <Array as="points">
              <mxPoint x="775" y="290" />
            </Array>
          </mxGeometry>
        </mxCell>
        <mxCell id="lFE6wIospnwltuepOsA1-3" value="Is there a user in the cache?" style="strokeWidth=2;html=1;shape=mxgraph.flowchart.decision;whiteSpace=wrap;" vertex="1" parent="1">
          <mxGeometry x="480" y="240" width="200" height="100" as="geometry" />
        </mxCell>
        <mxCell id="lFE6wIospnwltuepOsA1-5" value="Dashboard" style="rounded=1;whiteSpace=wrap;html=1;absoluteArcSize=1;arcSize=14;strokeWidth=2;" vertex="1" parent="1">
          <mxGeometry x="680" y="360" width="200" height="40" as="geometry" />
        </mxCell>
        <mxCell id="lFE6wIospnwltuepOsA1-12" value="Already have&lt;br&gt;an account" style="edgeStyle=orthogonalEdgeStyle;rounded=0;orthogonalLoop=1;jettySize=auto;html=1;" edge="1" parent="1" source="lFE6wIospnwltuepOsA1-9" target="lFE6wIospnwltuepOsA1-2">
          <mxGeometry relative="1" as="geometry">
            <Array as="points">
              <mxPoint x="450" y="460" />
              <mxPoint x="450" y="460" />
            </Array>
          </mxGeometry>
        </mxCell>
        <mxCell id="myGewdImtbe0IOwLtQ24-5" value="" style="edgeStyle=orthogonalEdgeStyle;rounded=0;orthogonalLoop=1;jettySize=auto;html=1;" edge="1" parent="1" source="lFE6wIospnwltuepOsA1-9" target="myGewdImtbe0IOwLtQ24-1">
          <mxGeometry relative="1" as="geometry" />
        </mxCell>
        <mxCell id="lFE6wIospnwltuepOsA1-9" value="Sign up" style="rounded=1;whiteSpace=wrap;html=1;absoluteArcSize=1;arcSize=14;strokeWidth=2;" vertex="1" parent="1">
          <mxGeometry x="280" y="480" width="200" height="40" as="geometry" />
        </mxCell>
        <mxCell id="myGewdImtbe0IOwLtQ24-6" value="Yes" style="edgeStyle=orthogonalEdgeStyle;rounded=0;orthogonalLoop=1;jettySize=auto;html=1;exitX=0.5;exitY=0;exitDx=0;exitDy=0;exitPerimeter=0;entryX=0;entryY=0.5;entryDx=0;entryDy=0;" edge="1" parent="1" source="myGewdImtbe0IOwLtQ24-1" target="lFE6wIospnwltuepOsA1-2">
          <mxGeometry relative="1" as="geometry" />
        </mxCell>
        <mxCell id="myGewdImtbe0IOwLtQ24-7" value="No" style="edgeStyle=orthogonalEdgeStyle;rounded=0;orthogonalLoop=1;jettySize=auto;html=1;" edge="1" parent="1" source="myGewdImtbe0IOwLtQ24-1" target="lFE6wIospnwltuepOsA1-9">
          <mxGeometry relative="1" as="geometry">
            <Array as="points">
              <mxPoint x="170" y="560" />
              <mxPoint x="380" y="560" />
            </Array>
          </mxGeometry>
        </mxCell>
        <mxCell id="myGewdImtbe0IOwLtQ24-1" value="Accettable&lt;br&gt;data?" style="strokeWidth=2;html=1;shape=mxgraph.flowchart.decision;whiteSpace=wrap;" vertex="1" parent="1">
          <mxGeometry x="110" y="470" width="120" height="60" as="geometry" />
        </mxCell>
        <mxCell id="myGewdImtbe0IOwLtQ24-10" value="Yes" style="edgeStyle=orthogonalEdgeStyle;rounded=0;orthogonalLoop=1;jettySize=auto;html=1;" edge="1" parent="1" source="myGewdImtbe0IOwLtQ24-8" target="lFE6wIospnwltuepOsA1-5">
          <mxGeometry relative="1" as="geometry" />
        </mxCell>
        <mxCell id="myGewdImtbe0IOwLtQ24-14" value="No" style="edgeStyle=elbowEdgeStyle;rounded=0;orthogonalLoop=1;jettySize=auto;html=1;exitX=0.5;exitY=1;exitDx=0;exitDy=0;exitPerimeter=0;" edge="1" parent="1" source="myGewdImtbe0IOwLtQ24-8" target="lFE6wIospnwltuepOsA1-2">
          <mxGeometry relative="1" as="geometry">
            <Array as="points">
              <mxPoint x="460" y="350" />
            </Array>
          </mxGeometry>
        </mxCell>
        <mxCell id="myGewdImtbe0IOwLtQ24-8" value="Correct&lt;br&gt;credentials?" style="strokeWidth=2;html=1;shape=mxgraph.flowchart.decision;whiteSpace=wrap;" vertex="1" parent="1">
          <mxGeometry x="520" y="400" width="120" height="60" as="geometry" />
        </mxCell>
      </root>
    </mxGraphModel>
  </diagram>
  <diagram id="c6XEku_GDDdshb9-RIqv" name="EDU">
    <mxGraphModel dx="207" dy="125" grid="1" gridSize="10" guides="1" tooltips="1" connect="1" arrows="1" fold="1" page="1" pageScale="1" pageWidth="1654" pageHeight="1169" math="0" shadow="0">
      <root>
        <mxCell id="0" />
        <mxCell id="1" parent="0" />
        <mxCell id="_Xb9ILPCKW9PJ4Opiecp-2" value="Tournament name" style="edgeStyle=orthogonalEdgeStyle;rounded=0;orthogonalLoop=1;jettySize=auto;html=1;" edge="1" parent="1" source="3kDpuubRiTTmUzGeucn9-1" target="_Xb9ILPCKW9PJ4Opiecp-1">
          <mxGeometry x="0.3334" relative="1" as="geometry">
            <Array as="points">
              <mxPoint x="660" y="340" />
            </Array>
            <mxPoint as="offset" />
          </mxGeometry>
        </mxCell>
        <mxCell id="3kDpuubRiTTmUzGeucn9-1" value="Dashboard" style="rounded=1;whiteSpace=wrap;html=1;absoluteArcSize=1;arcSize=14;strokeWidth=2;" vertex="1" parent="1">
          <mxGeometry x="560" y="240" width="200" height="40" as="geometry" />
        </mxCell>
        <mxCell id="_Xb9ILPCKW9PJ4Opiecp-4" value="Battle name" style="edgeStyle=orthogonalEdgeStyle;rounded=0;orthogonalLoop=1;jettySize=auto;html=1;" edge="1" parent="1" source="_Xb9ILPCKW9PJ4Opiecp-1" target="_Xb9ILPCKW9PJ4Opiecp-3">
          <mxGeometry x="0.2501" relative="1" as="geometry">
            <Array as="points">
              <mxPoint x="900" y="420" />
            </Array>
            <mxPoint as="offset" />
          </mxGeometry>
        </mxCell>
        <mxCell id="_Xb9ILPCKW9PJ4Opiecp-25" value="Close tournament" style="edgeStyle=orthogonalEdgeStyle;rounded=0;orthogonalLoop=1;jettySize=auto;html=1;" edge="1" parent="1" source="_Xb9ILPCKW9PJ4Opiecp-1" target="_Xb9ILPCKW9PJ4Opiecp-24">
          <mxGeometry relative="1" as="geometry" />
        </mxCell>
        <mxCell id="_Xb9ILPCKW9PJ4Opiecp-32" value="Show entire ranking" style="edgeStyle=orthogonalEdgeStyle;rounded=0;orthogonalLoop=1;jettySize=auto;html=1;" edge="1" parent="1" source="_Xb9ILPCKW9PJ4Opiecp-1" target="_Xb9ILPCKW9PJ4Opiecp-31">
          <mxGeometry x="0.7922" relative="1" as="geometry">
            <Array as="points">
              <mxPoint x="900" y="1070" />
            </Array>
            <mxPoint as="offset" />
          </mxGeometry>
        </mxCell>
        <mxCell id="_Xb9ILPCKW9PJ4Opiecp-39" value="Create new&lt;br&gt;battle" style="edgeStyle=orthogonalEdgeStyle;rounded=0;orthogonalLoop=1;jettySize=auto;html=1;" edge="1" parent="1" source="_Xb9ILPCKW9PJ4Opiecp-1" target="_Xb9ILPCKW9PJ4Opiecp-38">
          <mxGeometry x="0.7813" relative="1" as="geometry">
            <Array as="points">
              <mxPoint x="900" y="900" />
            </Array>
            <mxPoint as="offset" />
          </mxGeometry>
        </mxCell>
        <mxCell id="69EWBOJnUGRtJQ2O3pgG-9" value="Prompt a EDU name&lt;br&gt;in the bar" style="edgeStyle=orthogonalEdgeStyle;rounded=0;orthogonalLoop=1;jettySize=auto;html=1;" edge="1" parent="1" source="_Xb9ILPCKW9PJ4Opiecp-1" target="69EWBOJnUGRtJQ2O3pgG-8">
          <mxGeometry x="0.8158" relative="1" as="geometry">
            <Array as="points">
              <mxPoint x="900" y="980" />
            </Array>
            <mxPoint as="offset" />
          </mxGeometry>
        </mxCell>
        <mxCell id="_Xb9ILPCKW9PJ4Opiecp-1" value="Tournament View" style="rounded=1;whiteSpace=wrap;html=1;absoluteArcSize=1;arcSize=14;strokeWidth=2;" vertex="1" parent="1">
          <mxGeometry x="800" y="320" width="200" height="40" as="geometry" />
        </mxCell>
        <mxCell id="_Xb9ILPCKW9PJ4Opiecp-6" value="Correct the battle" style="edgeStyle=orthogonalEdgeStyle;rounded=0;orthogonalLoop=1;jettySize=auto;html=1;" edge="1" parent="1" source="_Xb9ILPCKW9PJ4Opiecp-3" target="_Xb9ILPCKW9PJ4Opiecp-5">
          <mxGeometry x="0.3334" relative="1" as="geometry">
            <Array as="points">
              <mxPoint x="1140" y="500" />
            </Array>
            <mxPoint as="offset" />
          </mxGeometry>
        </mxCell>
        <mxCell id="_Xb9ILPCKW9PJ4Opiecp-9" value="Show entire ranking" style="edgeStyle=elbowEdgeStyle;rounded=0;orthogonalLoop=1;jettySize=auto;html=1;" edge="1" parent="1" source="_Xb9ILPCKW9PJ4Opiecp-3" target="_Xb9ILPCKW9PJ4Opiecp-8">
          <mxGeometry x="0.4928" relative="1" as="geometry">
            <Array as="points">
              <mxPoint x="1140" y="500" />
            </Array>
            <mxPoint as="offset" />
          </mxGeometry>
        </mxCell>
        <mxCell id="_Xb9ILPCKW9PJ4Opiecp-30" value="Show GH&lt;br&gt;repository" style="edgeStyle=orthogonalEdgeStyle;rounded=0;orthogonalLoop=1;jettySize=auto;html=1;" edge="1" parent="1" source="_Xb9ILPCKW9PJ4Opiecp-3" target="_Xb9ILPCKW9PJ4Opiecp-29">
          <mxGeometry x="0.6" relative="1" as="geometry">
            <Array as="points">
              <mxPoint x="1140" y="700" />
            </Array>
            <mxPoint as="offset" />
          </mxGeometry>
        </mxCell>
        <mxCell id="_Xb9ILPCKW9PJ4Opiecp-3" value="Battle View" style="rounded=1;whiteSpace=wrap;html=1;absoluteArcSize=1;arcSize=14;strokeWidth=2;" vertex="1" parent="1">
          <mxGeometry x="1040" y="400" width="200" height="40" as="geometry" />
        </mxCell>
        <mxCell id="_Xb9ILPCKW9PJ4Opiecp-11" value="Edit score&lt;br&gt;Evaluate code" style="edgeStyle=orthogonalEdgeStyle;rounded=0;orthogonalLoop=1;jettySize=auto;html=1;" edge="1" parent="1" source="_Xb9ILPCKW9PJ4Opiecp-5" target="_Xb9ILPCKW9PJ4Opiecp-10">
          <mxGeometry relative="1" as="geometry" />
        </mxCell>
        <mxCell id="_Xb9ILPCKW9PJ4Opiecp-15" value="Confirm all grades" style="edgeStyle=orthogonalEdgeStyle;rounded=0;orthogonalLoop=1;jettySize=auto;html=1;" edge="1" parent="1" source="_Xb9ILPCKW9PJ4Opiecp-5" target="_Xb9ILPCKW9PJ4Opiecp-14">
          <mxGeometry relative="1" as="geometry" />
        </mxCell>
        <mxCell id="_Xb9ILPCKW9PJ4Opiecp-5" value="Manual Evaluation" style="rounded=1;whiteSpace=wrap;html=1;absoluteArcSize=1;arcSize=14;strokeWidth=2;" vertex="1" parent="1">
          <mxGeometry x="1280" y="480" width="200" height="40" as="geometry" />
        </mxCell>
        <mxCell id="_Xb9ILPCKW9PJ4Opiecp-8" value="Full ranking visible" style="shape=tape;whiteSpace=wrap;html=1;strokeWidth=2;size=0.19" vertex="1" parent="1">
          <mxGeometry x="1280" y="590" width="200" height="48" as="geometry" />
        </mxCell>
        <mxCell id="_Xb9ILPCKW9PJ4Opiecp-13" value="Insert score &amp;amp; confirm" style="edgeStyle=orthogonalEdgeStyle;rounded=0;orthogonalLoop=1;jettySize=auto;html=1;" edge="1" parent="1" source="_Xb9ILPCKW9PJ4Opiecp-10" target="_Xb9ILPCKW9PJ4Opiecp-5">
          <mxGeometry relative="1" as="geometry">
            <Array as="points">
              <mxPoint x="1700" y="560" />
              <mxPoint x="1380" y="560" />
            </Array>
          </mxGeometry>
        </mxCell>
        <mxCell id="_Xb9ILPCKW9PJ4Opiecp-10" value="Code to evaluate" style="rounded=1;whiteSpace=wrap;html=1;absoluteArcSize=1;arcSize=14;strokeWidth=2;" vertex="1" parent="1">
          <mxGeometry x="1600" y="480" width="200" height="40" as="geometry" />
        </mxCell>
        <mxCell id="_Xb9ILPCKW9PJ4Opiecp-18" value="No" style="edgeStyle=orthogonalEdgeStyle;rounded=0;orthogonalLoop=1;jettySize=auto;html=1;" edge="1" parent="1" source="_Xb9ILPCKW9PJ4Opiecp-14" target="_Xb9ILPCKW9PJ4Opiecp-5">
          <mxGeometry relative="1" as="geometry">
            <Array as="points">
              <mxPoint x="1460" y="420" />
            </Array>
          </mxGeometry>
        </mxCell>
        <mxCell id="_Xb9ILPCKW9PJ4Opiecp-19" value="Yes" style="edgeStyle=orthogonalEdgeStyle;rounded=0;orthogonalLoop=1;jettySize=auto;html=1;" edge="1" parent="1" source="_Xb9ILPCKW9PJ4Opiecp-14" target="_Xb9ILPCKW9PJ4Opiecp-3">
          <mxGeometry relative="1" as="geometry" />
        </mxCell>
        <mxCell id="_Xb9ILPCKW9PJ4Opiecp-14" value="Confirm?" style="strokeWidth=2;html=1;shape=mxgraph.flowchart.decision;whiteSpace=wrap;" vertex="1" parent="1">
          <mxGeometry x="1330" y="400" width="100" height="40" as="geometry" />
        </mxCell>
        <mxCell id="_Xb9ILPCKW9PJ4Opiecp-26" value="No" style="edgeStyle=orthogonalEdgeStyle;rounded=0;orthogonalLoop=1;jettySize=auto;html=1;" edge="1" parent="1" source="_Xb9ILPCKW9PJ4Opiecp-24" target="_Xb9ILPCKW9PJ4Opiecp-1">
          <mxGeometry relative="1" as="geometry">
            <Array as="points">
              <mxPoint x="980" y="260" />
            </Array>
          </mxGeometry>
        </mxCell>
        <mxCell id="_Xb9ILPCKW9PJ4Opiecp-27" value="Yes" style="edgeStyle=orthogonalEdgeStyle;rounded=0;orthogonalLoop=1;jettySize=auto;html=1;" edge="1" parent="1" source="_Xb9ILPCKW9PJ4Opiecp-24" target="3kDpuubRiTTmUzGeucn9-1">
          <mxGeometry relative="1" as="geometry" />
        </mxCell>
        <mxCell id="_Xb9ILPCKW9PJ4Opiecp-24" value="Confirm?" style="strokeWidth=2;html=1;shape=mxgraph.flowchart.decision;whiteSpace=wrap;" vertex="1" parent="1">
          <mxGeometry x="850" y="240" width="100" height="40" as="geometry" />
        </mxCell>
        <mxCell id="_Xb9ILPCKW9PJ4Opiecp-29" value="GitHub" style="rounded=0;whiteSpace=wrap;html=1;absoluteArcSize=1;arcSize=14;strokeWidth=2;dashed=1;dashPattern=1 4;" vertex="1" parent="1">
          <mxGeometry x="1280" y="680" width="200" height="40" as="geometry" />
        </mxCell>
        <mxCell id="_Xb9ILPCKW9PJ4Opiecp-31" value="Full ranking visible" style="shape=tape;whiteSpace=wrap;html=1;strokeWidth=2;size=0.19" vertex="1" parent="1">
          <mxGeometry x="1040" y="1040" width="200" height="48" as="geometry" />
        </mxCell>
        <mxCell id="69EWBOJnUGRtJQ2O3pgG-2" style="edgeStyle=orthogonalEdgeStyle;rounded=0;orthogonalLoop=1;jettySize=auto;html=1;" edge="1" parent="1" source="_Xb9ILPCKW9PJ4Opiecp-38" target="69EWBOJnUGRtJQ2O3pgG-1">
          <mxGeometry relative="1" as="geometry" />
        </mxCell>
        <mxCell id="_Xb9ILPCKW9PJ4Opiecp-38" value="Form new_battle" style="rounded=1;whiteSpace=wrap;html=1;absoluteArcSize=1;arcSize=14;strokeWidth=2;" vertex="1" parent="1">
          <mxGeometry x="1040" y="880" width="200" height="40" as="geometry" />
        </mxCell>
        <mxCell id="69EWBOJnUGRtJQ2O3pgG-3" value="No" style="edgeStyle=orthogonalEdgeStyle;rounded=0;orthogonalLoop=1;jettySize=auto;html=1;" edge="1" parent="1" source="69EWBOJnUGRtJQ2O3pgG-1" target="_Xb9ILPCKW9PJ4Opiecp-38">
          <mxGeometry relative="1" as="geometry">
            <Array as="points">
              <mxPoint x="1220" y="810" />
            </Array>
          </mxGeometry>
        </mxCell>
        <mxCell id="69EWBOJnUGRtJQ2O3pgG-4" value="Yes" style="edgeStyle=orthogonalEdgeStyle;rounded=0;orthogonalLoop=1;jettySize=auto;html=1;" edge="1" parent="1" source="69EWBOJnUGRtJQ2O3pgG-1" target="_Xb9ILPCKW9PJ4Opiecp-3">
          <mxGeometry relative="1" as="geometry">
            <Array as="points">
              <mxPoint x="1060" y="810" />
            </Array>
          </mxGeometry>
        </mxCell>
        <mxCell id="69EWBOJnUGRtJQ2O3pgG-1" value="Accettable&lt;br&gt;data?" style="strokeWidth=2;html=1;shape=mxgraph.flowchart.decision;whiteSpace=wrap;" vertex="1" parent="1">
          <mxGeometry x="1080" y="780" width="120" height="60" as="geometry" />
        </mxCell>
        <mxCell id="69EWBOJnUGRtJQ2O3pgG-11" value="" style="edgeStyle=orthogonalEdgeStyle;rounded=0;orthogonalLoop=1;jettySize=auto;html=1;" edge="1" parent="1" source="69EWBOJnUGRtJQ2O3pgG-8" target="69EWBOJnUGRtJQ2O3pgG-10">
          <mxGeometry relative="1" as="geometry" />
        </mxCell>
        <mxCell id="69EWBOJnUGRtJQ2O3pgG-8" value="Select other EDU" style="rounded=1;whiteSpace=wrap;html=1;absoluteArcSize=1;arcSize=14;strokeWidth=2;" vertex="1" parent="1">
          <mxGeometry x="1040" y="960" width="200" height="40" as="geometry" />
        </mxCell>
        <mxCell id="69EWBOJnUGRtJQ2O3pgG-12" value="Yes&lt;br&gt;No" style="edgeStyle=orthogonalEdgeStyle;rounded=0;orthogonalLoop=1;jettySize=auto;html=1;" edge="1" parent="1" source="69EWBOJnUGRtJQ2O3pgG-10" target="_Xb9ILPCKW9PJ4Opiecp-3">
          <mxGeometry relative="1" as="geometry">
            <Array as="points">
              <mxPoint x="1370" y="760" />
              <mxPoint x="1100" y="760" />
            </Array>
          </mxGeometry>
        </mxCell>
        <mxCell id="69EWBOJnUGRtJQ2O3pgG-10" value="Confirm?" style="strokeWidth=2;html=1;shape=mxgraph.flowchart.decision;whiteSpace=wrap;" vertex="1" parent="1">
          <mxGeometry x="1320" y="960" width="100" height="40" as="geometry" />
        </mxCell>
      </root>
    </mxGraphModel>
  </diagram>
</mxfile>
